<svg width="136" height="238" viewBox="0 0 136 238" fill="none" xmlns="http://www.w3.org/2000/svg">
<path fill-rule="evenodd" clip-rule="evenodd" d="M47.258 0.173093C50.1225 -0.176879 53.1799 -0.05334 55.8439 1.07737C61.5085 3.48201 63.1187 10.1741 63.041 15.6135C62.9573 21.468 61.7141 27.8627 66.1651 32.5798C68.2112 34.7485 70.7563 36.4081 72.7654 38.6166C74.9122 40.9767 76.5966 43.677 77.8438 46.5768C80.1339 51.9032 81.2578 58.1669 79.1637 63.7543C77.3199 68.6736 72.6811 73.1138 73.6834 78.7076C74.729 84.5429 80.6122 89.0041 84.2904 93.3505C88.4532 98.2693 92.2859 104.556 92.9155 111.006C93.5193 117.188 90.8284 123.44 86.6988 128.113C78.4477 137.451 66.0452 142.028 53.5396 142C48.23 141.988 42.2186 141.748 37.6366 138.895C36.2204 138.013 35.4733 137.023 34.6315 135.648C33.8767 134.414 32.8796 133.612 31.7255 132.739C29.1899 130.822 27.3587 128.239 26.1901 125.347C21.6522 114.114 25.2792 100.218 31.6312 90.2428C33.1364 87.8796 34.3686 85.6055 33.6374 82.7886C32.8744 79.8482 30.999 77.1961 29.3403 74.6685C27.7011 72.1705 25.8299 69.7874 24.5488 67.0865C23.207 64.2571 22.8292 61.2943 23.0662 58.1977C23.5118 52.3811 26.0227 47.0135 29.5777 42.3356C33.0017 37.8298 37.0221 33.5185 37.0311 27.6145C37.041 21.3571 32.8577 15.7908 34.6399 9.42898C35.3778 6.79466 36.86 4.09184 39.2486 2.51252C41.5393 0.997846 44.5639 0.502237 47.258 0.173093Z" fill="#DDE3E9"/>
<path fill-rule="evenodd" clip-rule="evenodd" d="M45.3862 10.1764C45.4399 9.33604 46.4367 8.83201 47.2215 9.0513C48.2545 9.3401 48.2346 10.3053 48.2073 11.1652C48.1237 13.8083 48.5063 16.377 49.1417 18.9415C50.4622 24.2735 52.9027 29.1861 54.8362 34.308C56.768 39.4255 57.6748 44.7092 56.5416 50.1243C55.4732 55.23 53.7948 60.2033 52.7015 65.3154C51.7378 69.8211 50.7123 74.5726 52.1799 79.0668C53.5921 83.3928 56.7142 86.9159 58.9625 90.8253C63.6165 98.9181 65.6813 107.896 65.9574 117.135C66.0854 121.425 65.9702 125.755 64.9749 129.963C64.402 132.386 63.6322 135.66 61.5559 137.333C60.5985 138.105 58.961 138.371 58.1552 137.229C57.3987 136.158 58.0624 134.499 58.3025 133.357C59.3427 128.413 59.5519 123.361 59.3029 118.342C59.0619 113.48 58.4874 108.626 56.9572 103.982C55.5369 99.6727 53.3792 95.8022 50.8398 92.0325C48.2521 88.1909 45.562 84.3411 44.4928 79.7892C43.4065 75.1661 44.289 70.462 45.4691 65.9272C46.7171 61.1306 48.3518 56.4717 50.0417 51.8051C51.6886 47.2579 52.2724 42.9554 51.3632 38.1962C49.5672 28.7935 44.7598 19.9681 45.3862 10.1764Z" fill="#C5CFD6"/>
<path fill-rule="evenodd" clip-rule="evenodd" d="M122.892 11.5823C126.437 12.6586 129.958 14.3952 132.485 17.1183C137.858 22.909 136.209 31.6609 133.243 38.0532C130.05 44.9334 125.212 51.8491 127.94 59.7432C129.193 63.3723 131.301 66.6591 132.49 70.3161C133.761 74.224 134.309 78.2938 134.239 82.372C134.11 89.8624 132.118 97.8548 126.708 103.373C121.945 108.232 114.158 111.07 112.377 118.206C110.518 125.651 115.061 133.988 117.078 141.041C119.36 149.024 120.533 158.453 117.862 166.409C115.303 174.034 108.842 180.028 101.528 183.406C86.9152 190.156 69.9487 189.117 55.2958 182.578C49.0748 179.801 42.1506 176.391 38.2845 170.633C37.0897 168.853 36.7364 167.294 36.476 165.23C36.2426 163.378 35.4972 161.911 34.6048 160.278C32.644 156.692 31.8618 152.684 32.0198 148.656C32.6345 133.011 44.2336 118.464 56.9562 109.972C59.9708 107.96 62.6181 105.912 63.2494 102.2C63.9086 98.3255 63.1108 94.2134 62.5012 90.3613C61.899 86.5544 60.9638 82.7626 60.8888 78.902C60.8105 74.8579 61.9334 71.1574 63.8482 67.6187C67.4453 60.9716 73.2275 55.9299 79.8696 52.2471C86.2673 48.6997 93.2616 45.6925 96.3928 38.715C99.7118 31.32 97.7474 22.5609 103.2 15.9643C105.458 13.2328 108.625 10.8074 112.262 10.1823C115.749 9.58265 119.558 10.57 122.892 11.5823Z" fill="#DDE3E9"/>
<path fill-rule="evenodd" clip-rule="evenodd" d="M115.651 23.8109C116.154 22.8438 117.584 22.7694 118.387 23.4404C119.443 24.3238 118.914 25.4564 118.432 26.4604C116.95 29.5467 116.052 32.7891 115.452 36.1592C114.204 43.1657 114.485 50.2625 114.063 57.3413C113.642 64.4142 111.935 71.1467 107.774 76.9654C103.85 82.4518 99.2832 87.4617 95.3274 92.9426C91.8408 97.7733 88.1533 102.863 87.5156 108.954C86.9012 114.817 88.7069 120.626 89.2882 126.434C90.4919 138.457 88.2042 150.171 83.6884 161.257C81.5911 166.405 79.1887 171.472 75.8211 175.933C73.8824 178.503 71.2673 181.977 67.9634 182.869C66.4399 183.281 64.3855 182.739 64.0415 180.964C63.7181 179.298 65.3628 177.682 66.2417 176.455C70.047 171.146 72.9376 165.273 75.2753 159.198C77.5399 153.314 79.4103 147.265 80.0529 140.963C80.6491 135.116 80.1532 129.401 79.1581 123.606C78.1443 117.701 77.0149 111.731 78.1486 105.781C79.2996 99.7364 82.7953 94.6281 86.5501 89.8764C90.5215 84.8502 94.8729 80.1897 99.293 75.5491C103.6 71.0273 106.536 66.2381 107.966 60.1256C110.79 48.0493 109.791 35.0782 115.651 23.8109Z" fill="#C5CFD6"/>
<path fill-rule="evenodd" clip-rule="evenodd" d="M13.306 56C19.2003 56 24.3823 59.1244 27.9531 63.5579C32.133 68.7481 32.9772 75.0862 34.6745 81.2719C35.5191 84.3503 36.9717 87.4062 39.5174 89.4977C41.8327 91.3998 44.7721 91.7804 47.5435 92.7097C53.0822 94.5669 57.5547 99.0406 59.321 104.499C61.4758 111.158 59.1934 117.873 59.5864 124.622C59.9472 130.819 66.0576 134.685 70.9738 137.656C75.8215 140.586 80.1886 143.328 81.6487 149.035C83.1969 155.088 83.7164 161.844 81.5719 167.823C78.0015 177.779 67.5525 182.163 57.4561 182.842C48.2932 183.459 36.7719 182.491 29.8907 175.84C25.773 171.86 24.2819 166.293 24.4669 160.755C24.5818 157.311 25.264 153.899 26.146 150.571C26.7711 148.213 27.6157 145.864 27.8563 143.427C28.4959 136.942 22.5026 135.697 17.401 133.916C10.9183 131.654 6.37987 127.38 3.22399 121.425C0.285002 115.881 -0.948134 109.658 0.813701 103.554C1.71353 100.437 3.3456 97.6097 5.55902 95.2046C6.53336 94.146 7.90665 93.2631 8.78608 92.1509C9.60694 91.1122 9.42823 89.7664 9.14534 88.5499C7.83732 82.9306 3.76196 78.2776 2.30451 72.6685C0.988698 67.6054 1.76655 61.3042 6.39544 58.0379C8.3953 56.6265 10.8616 56.0156 13.306 56Z" fill="#C5CFD6"/>
<path fill-rule="evenodd" clip-rule="evenodd" d="M21.3377 70.6414C27.585 77.296 29.2831 86.325 29.7815 95.0762C30.0606 99.9834 29.7701 105.159 31.2118 109.919C32.4454 113.993 35.3373 117.107 38.3183 120.051C44.3188 125.975 51.0108 131.999 52.7659 140.574C53.7957 145.606 53.1006 150.804 54.5236 155.78C55.8175 160.304 58.0956 164.748 60.8665 168.568C63.0975 171.645 66.0042 174 68.443 176.867C69.1871 177.743 70.2529 179.031 69.9458 180.267C69.5865 181.714 67.7431 182.172 66.4352 181.945C63.3859 181.415 60.8191 178.503 58.8253 176.386C55.9098 173.291 53.4323 169.962 51.4187 166.227C49.1832 162.08 47.3833 157.679 46.6142 153.026C45.8161 148.199 46.2133 143.168 44.3909 138.535C41.3242 130.74 33.886 126.14 28.5082 120.064C21.8077 112.494 22.807 103.072 23.4933 93.759C23.8703 88.6413 24.2451 82.862 21.6591 78.1895C20.672 76.4058 18.4711 74.7428 18.0467 72.7155C17.6579 70.8579 19.7797 68.9809 21.3377 70.6414Z" fill="#AFB9C5"/>
<path fill-rule="evenodd" clip-rule="evenodd" d="M28 180C28.0004 218.058 34.2112 238 67.0001 238C99.789 238 106 218.058 106 180H28Z" fill="#89C5CC"/>
</svg>
