<svg width="314" height="200" viewBox="0 0 314 200" fill="none" xmlns="http://www.w3.org/2000/svg">
<g clip-path="url(#clip0)">
<path fill-rule="evenodd" clip-rule="evenodd" d="M182.77 40.1164C184.696 39.8811 186.751 39.9641 188.542 40.7243C192.35 42.3408 193.432 46.8397 193.38 50.4965C193.324 54.4323 192.488 58.7312 195.48 61.9023C196.856 63.3603 198.567 64.476 199.918 65.9607C201.361 67.5473 202.493 69.3626 203.332 71.3121C204.871 74.8928 205.627 79.1037 204.219 82.8599C202.979 86.167 199.861 89.152 200.535 92.9125C201.238 96.8354 205.193 99.8345 207.665 102.757C210.464 106.063 213.041 110.29 213.464 114.626C213.87 118.782 212.061 122.985 209.285 126.126C203.738 132.404 195.4 135.481 186.993 135.462C183.423 135.454 179.382 135.292 176.302 133.374C175.35 132.781 174.847 132.116 174.281 131.192C173.774 130.362 173.104 129.823 172.328 129.236C170.623 127.948 169.392 126.211 168.607 124.267C165.556 116.715 167.994 107.373 172.264 100.667C173.276 99.0786 174.105 97.5498 173.613 95.6561C173.1 93.6793 171.839 91.8964 170.724 90.1972C169.622 88.5179 168.364 86.9158 167.503 85.1001C166.601 83.198 166.347 81.2061 166.506 79.1244C166.806 75.2141 168.494 71.6056 170.884 68.4609C173.186 65.4318 175.889 62.5334 175.895 58.5643C175.901 54.3577 173.089 50.6156 174.287 46.3388C174.783 44.5678 175.78 42.7508 177.385 41.6891C178.925 40.6708 180.959 40.3376 182.77 40.1164Z" fill="#DDE3E9"/>
<path fill-rule="evenodd" clip-rule="evenodd" d="M181.511 46.8412C181.548 46.2762 182.218 45.9374 182.745 46.0848C183.44 46.2789 183.426 46.9278 183.408 47.5059C183.352 49.2827 183.609 51.0096 184.036 52.7337C184.924 56.3182 186.565 59.6208 187.864 63.064C189.163 66.5044 189.773 70.0564 189.011 73.6968C188.293 77.1292 187.164 80.4726 186.429 83.9093C185.781 86.9383 185.092 90.1326 186.079 93.1539C187.028 96.0621 189.127 98.4306 190.638 101.059C193.767 106.499 195.155 112.535 195.341 118.746C195.427 121.63 195.349 124.541 194.68 127.37C194.295 128.999 193.778 131.2 192.382 132.324C191.738 132.843 190.637 133.022 190.096 132.254C189.587 131.534 190.033 130.419 190.195 129.651C190.894 126.328 191.035 122.932 190.867 119.557C190.705 116.288 190.319 113.025 189.29 109.904C188.335 107.007 186.885 104.405 185.178 101.87C183.438 99.2877 181.63 96.6997 180.911 93.6396C180.181 90.5316 180.774 87.3692 181.567 84.3206C182.406 81.096 183.505 77.964 184.641 74.8268C185.748 71.7698 186.141 68.8774 185.53 65.6779C184.322 59.3568 181.09 53.4238 181.511 46.8412Z" fill="#C5CFD6"/>
<path fill-rule="evenodd" clip-rule="evenodd" d="M233.617 47.7864C236 48.5099 238.367 49.6774 240.065 51.508C243.678 55.4009 242.569 61.2846 240.575 65.5819C238.429 70.2072 235.176 74.8564 237.01 80.1634C237.853 82.6031 239.27 84.8127 240.069 87.2712C240.923 89.8983 241.292 92.6344 241.245 95.376C241.158 100.412 239.818 105.785 236.182 109.494C232.98 112.761 227.745 114.668 226.547 119.466C225.298 124.471 228.352 130.076 229.708 134.818C231.242 140.184 232.03 146.523 230.235 151.871C228.514 156.997 224.171 161.027 219.254 163.298C209.43 167.836 198.024 167.137 188.174 162.741C183.991 160.875 179.337 158.582 176.738 154.711C175.934 153.514 175.697 152.466 175.522 151.078C175.365 149.834 174.864 148.847 174.264 147.75C172.946 145.339 172.42 142.645 172.526 139.937C172.939 129.419 180.737 119.639 189.29 113.93C191.317 112.578 193.096 111.201 193.521 108.706C193.964 106.101 193.427 103.337 193.018 100.747C192.613 98.1877 191.984 95.6386 191.934 93.0432C191.881 90.3245 192.636 87.8368 193.923 85.4578C196.341 80.9892 200.229 77.5998 204.694 75.124C208.995 72.7392 213.697 70.7176 215.802 66.0268C218.033 61.0554 216.712 55.1669 220.378 50.7323C221.896 48.896 224.025 47.2655 226.47 46.8452C228.814 46.4421 231.375 47.1058 233.617 47.7864Z" fill="#DDE3E9"/>
<path fill-rule="evenodd" clip-rule="evenodd" d="M228.749 56.0075C229.087 55.3574 230.048 55.3074 230.588 55.7585C231.298 56.3524 230.943 57.1138 230.618 57.7887C229.622 59.8635 229.018 62.0433 228.615 64.3089C227.776 69.0191 227.964 73.7901 227.681 78.549C227.398 83.3038 226.25 87.8298 223.453 91.7416C220.816 95.4299 217.745 98.7979 215.086 102.483C212.742 105.73 210.263 109.151 209.834 113.247C209.421 117.188 210.635 121.093 211.026 124.998C211.835 133.08 210.297 140.955 207.261 148.408C205.851 151.869 204.236 155.275 201.972 158.275C200.669 160.002 198.911 162.337 196.69 162.937C195.666 163.214 194.285 162.85 194.053 161.656C193.836 160.537 194.942 159.45 195.532 158.625C198.091 155.056 200.034 151.108 201.605 147.024C203.128 143.068 204.385 139.001 204.817 134.765C205.218 130.834 204.885 126.993 204.216 123.097C203.534 119.126 202.775 115.114 203.537 111.113C204.311 107.05 206.661 103.616 209.185 100.421C211.855 97.0423 214.78 93.9092 217.752 90.7895C220.647 87.7496 222.621 84.53 223.582 80.4207C225.481 72.3022 224.809 63.5822 228.749 56.0075Z" fill="#C5CFD6"/>
<path fill-rule="evenodd" clip-rule="evenodd" d="M159.945 77.647C163.908 77.647 167.391 79.7474 169.792 82.7279C172.602 86.2171 173.17 90.478 174.311 94.6365C174.878 96.706 175.855 98.7603 177.566 100.166C179.123 101.445 181.099 101.701 182.962 102.326C186.685 103.574 189.692 106.582 190.88 110.252C192.328 114.728 190.794 119.242 191.058 123.779C191.301 127.945 195.408 130.544 198.713 132.542C201.972 134.511 204.908 136.355 205.89 140.191C206.931 144.26 207.28 148.802 205.838 152.822C203.438 159.515 196.413 162.462 189.626 162.919C183.466 163.334 175.721 162.683 171.095 158.211C168.326 155.536 167.324 151.793 167.448 148.07C167.526 145.755 167.984 143.461 168.577 141.224C168.997 139.639 169.565 138.06 169.727 136.421C170.157 132.062 166.128 131.224 162.698 130.028C158.34 128.506 155.289 125.633 153.167 121.63C151.192 117.903 150.363 113.72 151.547 109.616C152.152 107.521 153.249 105.62 154.737 104.003C155.392 103.291 156.315 102.698 156.907 101.95C157.458 101.252 157.338 100.347 157.148 99.5292C156.269 95.7516 153.529 92.6235 152.549 88.8526C151.665 85.4489 152.188 81.2128 155.299 79.017C156.644 78.0682 158.302 77.6574 159.945 77.647Z" fill="#C5CFD6"/>
<path fill-rule="evenodd" clip-rule="evenodd" d="M165.344 87.4898C169.544 91.9635 170.686 98.0333 171.021 103.916C171.209 107.215 171.013 110.695 171.982 113.895C172.812 116.634 174.756 118.727 176.76 120.706C180.794 124.689 185.293 128.738 186.473 134.503C187.165 137.886 186.698 141.38 187.654 144.726C188.524 147.767 190.056 150.755 191.918 153.323C193.418 155.391 195.372 156.974 197.012 158.902C197.512 159.49 198.229 160.357 198.022 161.187C197.78 162.16 196.541 162.468 195.662 162.315C193.612 161.959 191.886 160.002 190.546 158.579C188.586 156.498 186.921 154.26 185.567 151.749C184.064 148.961 182.854 146.002 182.337 142.874C181.8 139.629 182.067 136.247 180.842 133.132C178.781 127.892 173.78 124.8 170.165 120.715C165.66 115.626 166.332 109.291 166.794 103.031C167.047 99.5906 167.299 95.7053 165.561 92.5641C164.897 91.365 163.417 90.247 163.132 88.8841C162.871 87.6354 164.297 86.3735 165.344 87.4898Z" fill="#AFB9C5"/>
<path fill-rule="evenodd" clip-rule="evenodd" d="M169.823 161.008C169.823 186.594 173.999 200 196.042 200C218.085 200 222.26 186.594 222.26 161.008H169.823Z" fill="#89C5CC"/>
</g>
<path fill-rule="evenodd" clip-rule="evenodd" d="M71.337 39.3969C68.8327 36.4574 67.1378 32.855 67.421 28.8183C68.2371 17.1877 84.4274 19.7463 87.5767 25.6164C90.7261 31.4866 90.3518 46.3767 86.2816 47.4259C84.6584 47.8443 81.2004 46.8194 77.6811 44.6981L79.8901 60.3262H66.8467L71.337 39.3969Z" fill="#B28B67"/>
<path fill-rule="evenodd" clip-rule="evenodd" d="M80.1433 18.8506C78.4242 18.5687 73.7955 18.3749 72.9418 18.375C72.3963 18.375 71.8052 18.4997 71.4821 17.9988C71.2175 17.5886 71.3144 16.8949 71.2355 16.4189C71.1438 15.866 71.0135 15.3202 70.8818 14.7757C70.507 13.2265 69.9401 11.7527 69.147 10.3689C67.6588 7.77274 65.4787 5.73917 62.7263 4.55585C59.687 3.24927 56.2477 2.95009 52.9784 3.21511C49.4798 3.49865 46.3129 4.65357 43.0097 5.74043C39.8619 6.7761 36.5649 7.18377 33.2727 6.678C29.9556 6.16849 27.4493 4.37066 24.6514 2.6643C21.7872 0.917394 18.5139 -0.225143 15.1279 0.0374991C11.9671 0.282749 9.05401 1.58783 6.44038 3.33123C3.99504 4.96238 1.97731 6.92488 0.838157 9.68694C-0.387322 12.6581 -0.386196 15.9194 1.62903 18.5452C4.55002 22.3513 9.97274 23.3356 14.4842 23.2377C17.0937 23.1813 19.6566 22.7049 22.1203 21.8384C25.4059 20.6828 28.2452 18.724 31.319 17.1348C32.7615 16.389 34.2525 15.7765 35.8155 15.3353C37.3321 14.907 38.8259 14.7106 40.1991 15.6267C41.6517 16.596 42.9534 17.5481 44.6152 18.1548C46.2095 18.7369 47.8981 19.0625 49.5966 19.0493C52.9013 19.0238 56.159 17.9941 59.3686 17.3044C61.986 16.7421 64.7865 16.1817 67.4549 16.7222C68.5683 16.9478 70.1947 17.4136 70.5969 18.5707C63.8282 19.7975 61.1698 28.1685 63.078 34.3136C64.1079 37.6304 70.2986 41.5076 72.7057 39.764C74.2306 38.6593 73.3048 37.2091 72.7057 36.2517C71.5583 34.4184 71.1657 32.0633 73.2889 30.7869C75.1202 29.686 77.0458 32.3003 77.0822 32.2974C77.5855 32.2578 81.9348 29.7981 84.9314 26.2087C87.8876 26.3839 88.336 24.4347 87.6302 22.8407C86.9243 21.2466 82.5185 19.2404 80.1433 18.8506Z" fill="#191847"/>
<path d="M61.4122 200C84.524 200 103.26 182.115 103.26 160.054C103.26 137.993 84.524 120.108 61.4122 120.108C38.3003 120.108 19.5645 137.993 19.5645 160.054C19.5645 182.115 38.3003 200 61.4122 200Z" fill="#C5CFD6"/>
<path fill-rule="evenodd" clip-rule="evenodd" d="M140.493 193.836C133.529 178.424 128.493 165.004 126.472 157.923C123.011 145.8 120.378 135.132 119.712 131.148C118.125 121.647 131.92 121.094 133.743 125.816C136.503 132.962 141.321 156.441 147.11 191.906L140.493 193.836ZM59.7206 145.469C66.1096 142.943 88.4834 135.04 99.2743 132.805C102.375 132.162 105.381 131.565 108.206 131.026C116.605 129.422 120.956 144.574 112.867 145.738C92.7223 148.638 64.1633 151.632 61.7192 151.968C58.2938 152.439 55.7054 147.056 59.7206 145.469Z" fill="#B28B67"/>
<path fill-rule="evenodd" clip-rule="evenodd" d="M113.362 126.857L78.8037 109.265V105.435H82.9136C116.347 113.954 133.431 119.414 134.167 121.814C134.175 121.84 134.182 121.866 134.189 121.892C134.206 121.914 134.222 121.936 134.238 121.959C140.864 131.071 144.832 175.558 146.135 178.889L133.438 180.783C128.581 162.774 113.043 150.227 113.456 128.657C113.344 128.025 113.316 127.425 113.362 126.857Z" fill="#1F28CF"/>
<path fill-rule="evenodd" clip-rule="evenodd" d="M81.6744 137.305C78.5124 136.672 75.6006 136.107 73.109 135.67C57.0148 132.847 52.3216 124.232 55.0964 105.435H84.7497C89.5937 106.827 114.767 117.383 127.828 122.998C136.473 126.714 133.748 140.111 128.852 143.598C128.826 143.812 128.738 143.957 128.581 144.022C102.247 154.936 81.4145 149.21 74.4553 151.039L71.2364 140.885L81.6744 137.305Z" fill="#2B44FF"/>
<path fill-rule="evenodd" clip-rule="evenodd" d="M61.9065 143.855C60.1811 144.02 58.9563 144.279 58.2321 144.633C57.3512 145.062 56.1374 145.836 54.5906 146.954C55.089 147.975 59.5681 157.159 68.028 174.504C70.7441 174.066 71.8204 173.029 71.2568 171.395C70.6931 169.76 70.2386 168.396 69.893 167.301L69.3561 151.712C69.3458 151.412 69.0942 151.177 68.7943 151.187C68.7891 151.187 68.784 151.188 68.7789 151.188L66.3807 151.339C65.018 150.236 64.1189 149.238 63.6835 148.345C63.3297 147.62 63.1341 146.475 63.0966 144.911L63.0966 144.911C63.0822 144.311 62.5841 143.836 61.9839 143.851C61.9581 143.851 61.9322 143.853 61.9065 143.855Z" fill="#E4E4E4"/>
<path fill-rule="evenodd" clip-rule="evenodd" d="M137.325 190.98C136.717 192.603 136.413 193.817 136.413 194.623C136.413 195.603 136.576 197.033 136.902 198.913C138.039 198.913 148.257 198.913 167.555 198.913C168.352 196.28 167.892 194.858 166.176 194.648C164.46 194.438 163.034 194.249 161.899 194.079L147.652 187.728C147.378 187.606 147.056 187.729 146.934 188.003C146.932 188.008 146.93 188.012 146.928 188.017L146.012 190.239C144.423 190.98 143.132 191.351 142.139 191.351C141.332 191.351 140.217 191.025 138.795 190.373L138.795 190.373C138.25 190.123 137.605 190.362 137.354 190.908C137.344 190.931 137.334 190.955 137.325 190.98Z" fill="#E4E4E4"/>
<path fill-rule="evenodd" clip-rule="evenodd" d="M112.5 90.5518L132.192 81.9035C135.642 78.4659 138.973 75.8532 142.186 74.0653C143.146 73.7595 144.788 73.6671 143.036 76.2247C141.285 78.7823 139.559 81.5512 140.258 82.4476C140.958 83.3439 142.985 82.3546 143.786 83.8122C144.319 84.784 140.903 85.9464 133.536 87.2995L118.788 98.6073L112.5 90.5518ZM32.8846 92.9338L44.0214 95.1435C32.8215 116.016 26.8152 127.078 26.0025 128.331C24.1739 131.148 25.88 136.313 26.5102 139.032C22.5565 139.953 24.1157 134.002 19.1123 135.244C14.5455 136.378 10.6733 139.289 6.41492 135.363C5.89137 134.881 5.50811 133.372 7.29314 132.599C11.7403 130.671 18.3106 127.062 19.376 125.661C20.8288 123.75 25.3317 112.841 32.8846 92.9338Z" fill="#B28B67"/>
<path fill-rule="evenodd" clip-rule="evenodd" d="M74.2908 51.2671L78.9903 50.461C89.2263 60.3904 93.4034 84.2455 100.225 87.4031C106.674 90.3885 115.817 87.4996 126.685 83.5988L130.013 91.0347C120.139 101.717 99.1028 110.742 90.5761 105.59C76.9438 97.3527 73.7966 67.931 74.2908 51.2671Z" fill="#DB2721"/>
<path fill-rule="evenodd" clip-rule="evenodd" d="M53.8047 110.326C72.648 110.326 86.5087 110.326 95.3869 110.326C97.287 110.326 96.929 107.582 96.6543 106.197C93.4843 90.2189 81.1097 72.9949 81.1097 50.25L69.1154 48.3691C59.1946 64.3248 55.7638 83.9694 53.8047 110.326Z" fill="#DDE3E9"/>
<path fill-rule="evenodd" clip-rule="evenodd" d="M49.6571 94.1479C41.1803 109.438 34.055 120.447 28.2814 127.173L19.5654 125.466C25.1799 90.6466 41.4385 64.9476 68.3414 48.3691H70.5063L73.0905 48.3691C83.8582 85.0739 86.8266 109.53 81.9959 121.739H44.5654C45.1576 112.806 47.0563 103.359 49.6571 94.1479H49.6571Z" fill="#FF4133"/>
<path fill-rule="evenodd" clip-rule="evenodd" d="M267.03 29.8761C269.756 26.6756 271.602 22.7535 271.293 18.3586C270.405 5.69558 252.777 8.48127 249.348 14.8725C245.92 21.2636 246.327 37.4754 250.759 38.6177C252.526 39.0732 256.291 37.9573 260.122 35.6478L257.717 52.6629H271.918L267.03 29.8761Z" fill="#B28B67"/>
<path fill-rule="evenodd" clip-rule="evenodd" d="M277.484 14.143C277.943 13.6884 278.193 13.0397 278.41 12.4236C278.634 11.7836 278.853 11.1371 279.002 10.471C279.3 9.1401 279.303 7.60954 278.354 6.5761C277.592 5.74738 276.45 5.37567 275.395 5.29489C274.693 5.24102 273.971 5.3394 273.298 5.56079C272.63 5.78041 272.054 6.21811 271.406 6.48978C271.381 5.05555 271.136 3.55484 270.408 2.33022C269.708 1.15193 268.591 0.490722 267.32 0.315793C266.015 0.136271 264.727 0.441617 263.559 1.07333C263.266 1.23154 262.976 1.39728 262.699 1.58487C262.467 1.74196 262.226 1.93114 261.953 1.99502C261.649 2.06632 261.499 1.89092 261.302 1.66936C261.07 1.40959 260.809 1.18078 260.533 0.977945C259.314 0.0812187 257.713 -0.287481 256.3 0.250025C255.648 0.49767 255.015 0.918242 254.573 1.49779C254.179 2.01439 253.899 2.83387 253.355 3.1938C253.124 3.34659 252.961 3.14416 252.751 2.99455C252.436 2.76975 252.135 2.52169 251.816 2.30302C251.367 1.99579 250.882 1.76598 250.362 1.64569C249.601 1.46958 248.549 1.51086 248.331 2.5078C248.25 2.88227 248.312 3.28276 248.339 3.66006C248.375 4.17813 248.413 4.69603 248.458 5.21334C248.492 5.60613 248.535 5.98548 248.609 6.3712C248.649 6.5768 248.772 6.96011 248.684 7.16601C248.574 7.42337 248.065 7.27705 247.848 7.286C247.419 7.30372 246.988 7.37897 246.591 7.56232C246.284 7.70445 245.961 7.91348 245.831 8.26592C245.751 8.48242 245.772 8.70481 245.81 8.92755C245.855 9.19486 245.803 9.33664 245.77 9.60636C245.193 9.32257 243.196 8.69203 242.945 9.72489C242.861 10.0688 243.052 10.4574 243.197 10.7474C243.452 11.2562 243.786 11.7211 244.128 12.1645C244.841 13.0896 245.692 13.8875 246.607 14.5698C245.534 15.0467 245.254 16.4532 246.183 17.2912C246.593 17.6612 247.144 17.7436 247.662 17.7199C247.851 17.7113 248.124 17.6385 248.273 17.6715C248.353 17.6892 248.439 17.7572 248.55 17.7647C249.28 17.8147 250.104 17.6389 250.818 17.4769C252.089 17.1883 253.293 16.5859 254.276 15.6684C254.528 15.4331 254.736 15.2976 255.076 15.3011C255.373 15.3041 255.665 15.3856 255.962 15.3932C256.748 15.4132 257.457 15.0289 258.187 14.773C258.232 15.7593 258.513 16.8456 258.916 17.7329C259.245 18.4565 259.932 18.5616 260.607 18.6251C262.766 18.8282 264.933 18.6015 267.094 18.6045C265.002 19.0775 262.84 19.2725 260.766 19.829C259.828 20.0806 260.544 20.7124 260.945 21.1504C261.605 21.8717 262.096 22.7653 262.436 23.7068C263.46 22.3725 265.269 21.4933 266.872 21.9032C268.643 22.3561 269.89 24.7512 268.758 26.4731C268.1 27.4727 266.913 27.8586 265.925 28.2881C266.696 29.0894 266.882 30.2729 267.346 31.2699C267.575 31.7615 267.896 32.3174 268.408 32.4887C268.597 32.5521 268.819 32.5576 268.968 32.7119C269.153 32.9029 269.197 33.1166 269.433 33.2808C270.376 33.9362 271.849 33.8857 272.684 33.0304C273.44 32.2568 273.244 31.0327 272.612 30.2484C273.617 29.8297 275.447 29.2911 275.048 27.726C277.225 27.5815 282.51 24.051 279.589 21.4711C281.192 20.5649 282.665 18.3502 281.635 16.398C280.842 14.8947 278.998 14.2227 277.484 14.143Z" fill="#191847"/>
<path fill-rule="evenodd" clip-rule="evenodd" d="M297.586 126.627H251.873L245.883 200H313.931L297.586 126.627Z" fill="#C5CFD6"/>
<path fill-rule="evenodd" clip-rule="evenodd" d="M297.586 126.627H283.527L275.112 200H313.931L297.586 126.627Z" fill="black" fill-opacity="0.1"/>
<path fill-rule="evenodd" clip-rule="evenodd" d="M199.758 114.057C194.884 111.131 186.707 114.891 186.712 119.076C186.729 131.6 198.158 190.622 198.755 194.353C199.352 198.085 205.744 199.07 206.116 194.366C206.708 186.88 207.809 160.967 206.708 148.972C206.253 144.021 205.764 139.306 205.282 135.1C211.279 145.93 220.554 161.436 233.107 181.618L239.921 178.505C234.57 160.874 230.182 148.427 226.758 141.164C220.894 128.728 215.396 118.078 213.082 114.327C209.442 108.426 203.106 110.485 199.758 114.057Z" fill="#B28B67"/>
<path fill-rule="evenodd" clip-rule="evenodd" d="M239.434 168.713L216.045 113.306C210.442 104.293 194.732 115.14 196.643 120.368C200.981 132.236 223.044 170.659 224.336 174.195L239.434 168.713Z" fill="#1F28CF"/>
<path fill-rule="evenodd" clip-rule="evenodd" d="M240.733 175.011C242.19 176.21 243.138 177.19 243.577 177.95C244.11 178.874 244.735 180.311 245.45 182.262C244.378 182.88 234.744 188.443 216.548 198.948C214.363 196.899 214.023 195.308 215.527 194.176C217.031 193.044 218.272 192.089 219.25 191.311L229.226 177.567C229.418 177.302 229.788 177.243 230.052 177.435C230.057 177.439 230.061 177.442 230.066 177.445L232.139 179.042C234.04 178.876 235.459 178.522 236.396 177.981C237.157 177.542 238.03 176.628 239.016 175.239L239.016 175.239C239.394 174.706 240.133 174.581 240.666 174.959C240.689 174.976 240.712 174.993 240.733 175.011Z" fill="#E4E4E4"/>
<path fill-rule="evenodd" clip-rule="evenodd" d="M207.612 191.363C208.274 193.13 208.605 194.452 208.605 195.329C208.605 196.396 208.428 197.953 208.072 200.001C206.834 200.001 195.71 200.001 174.698 200.001C173.831 197.133 174.332 195.586 176.2 195.357C178.069 195.128 179.621 194.922 180.857 194.738L196.369 187.822C196.667 187.689 197.017 187.823 197.15 188.122C197.152 188.127 197.155 188.132 197.157 188.137L198.154 190.556C199.884 191.363 201.289 191.767 202.371 191.767C203.249 191.767 204.463 191.412 206.011 190.702L206.011 190.702C206.605 190.43 207.308 190.691 207.58 191.285C207.592 191.31 207.603 191.336 207.612 191.363Z" fill="#E4E4E4"/>
<path fill-rule="evenodd" clip-rule="evenodd" d="M185.073 123.333C185.073 139.053 192.538 175.722 192.543 179.184L208.605 179.196C206.254 146.477 205.421 129.941 206.105 129.588C207.13 129.06 248.146 133.684 260.448 133.684C278.187 133.684 285.525 122.497 286.12 101.775H250.98C243.826 102.541 206.506 110.068 192.646 112.656C186.712 113.764 185.073 119.003 185.073 123.333Z" fill="#2B44FF"/>
<path fill-rule="evenodd" clip-rule="evenodd" d="M245.506 64.9109L224.968 53.6621C221.552 49.6063 218.187 46.4565 214.872 44.2125C213.859 43.7896 212.088 43.5336 213.745 46.4738C215.401 49.414 217.011 52.5811 216.167 53.4869C215.323 54.3927 213.219 53.1273 212.212 54.6323C211.541 55.6356 215.136 57.2206 222.998 59.3872L237.921 73.0513L245.506 64.9109ZM213.339 74.4017L204.318 69.4458C203.052 64.629 201.538 62.2056 199.778 62.1754C198.426 61.5461 200.781 67.6325 198.217 67.1047C195.653 66.5769 189.396 61.923 188.318 62.8679C186.722 64.2658 188.145 68.5583 189.821 70.6936C192.953 74.6845 195.546 76.0492 201.955 77.8364C205.307 78.7708 208.93 80.6437 212.825 83.4552L213.339 74.4017Z" fill="#997659"/>
<path fill-rule="evenodd" clip-rule="evenodd" d="M255.508 62.4052C248.314 62.3292 238.721 60.8098 228.486 54.3125L224.466 63.2769C231.526 70.2838 241.454 76.0408 250.134 75.797C256.975 75.6049 260.471 67.3305 255.508 62.4052Z" fill="#2026A2"/>
<path fill-rule="evenodd" clip-rule="evenodd" d="M245.822 76.7813C238.185 78.6859 225.378 76.4398 207.401 70.0429C202.942 79.2678 200.881 85.8445 201.217 89.7729C216.639 97.8285 229.856 101.42 240.746 101.657C240.4 108.119 241.186 114.267 243.828 119.885C249.26 131.434 281.064 120.738 291.758 122.843C298.454 101.095 285.506 92.2565 285.496 78.3407C285.484 63.1014 273.248 39.6445 271.448 39.6445H255.029C254.124 51.283 249.564 64.1096 245.822 76.7813Z" fill="#1F28CF"/>
<defs>
<clipPath id="clip0">
<rect width="91.4284" height="160" fill="white" transform="translate(151 40)"/>
</clipPath>
</defs>
</svg>
